<?xml version="1.0" encoding="UTF-8"?> <svg xmlns="http://www.w3.org/2000/svg" xmlns:xlink="http://www.w3.org/1999/xlink" version="1.1" id="Capa_1" x="0px" y="0px" width="31.889px" height="31.889px" viewBox="0 0 31.889 31.889" style="enable-background:new 0 0 31.889 31.889;fill:#ffffff" xml:space="preserve"> <g> <g> <polygon points="6.725,26.137 6.725,25.041 2.547,25.041 1.063,19.102 0,19.368 1.691,26.137 2.547,26.137 1.45,28.555 2.114,28.854 3.349,26.137 5.159,26.137 6.346,28.85 7.015,28.557 5.956,26.137 "></polygon> <polygon points="30.195,26.089 31.889,19.321 30.827,19.057 29.342,24.997 25.164,24.997 25.164,26.089 25.934,26.089 24.874,28.514 25.542,28.805 26.729,26.089 28.54,26.089 29.773,28.809 30.438,28.51 29.341,26.089 "></polygon> <polygon points="9.856,23.229 9.856,29.061 10.286,29.061 10.286,23.229 10.133,23.229 "></polygon> <polygon points="25.406,24.665 26.919,24.665 27.419,24.665 27.762,24.665 28.639,24.665 27.186,17.467 24.775,17.467 23.121,20.125 23.184,19.979 23.107,20.096 21.275,19.365 20.893,20.29 10.974,20.28 10.61,19.41 8.78,20.141 7.111,17.514 4.703,17.514 3.251,24.711 4.126,24.711 4.469,24.711 4.971,24.711 6.481,24.711 6.575,24.711 7.409,24.711 7.941,24.711 7.941,23.229 7.188,23.229 7.188,23.229 6.283,23.229 7.31,19.898 7.662,20.465 7.394,20.465 7.394,21.633 8.124,21.633 8.124,23.229 8.124,24.711 8.124,29.061 8.379,29.061 9.674,29.061 9.674,23.229 9.674,21.633 22.395,21.633 22.395,23.182 22.395,29.061 23.509,29.061 23.943,29.061 23.943,24.665 23.943,23.182 23.943,21.633 24.598,21.633 24.598,20.465 24.198,20.465 24.579,19.854 25.604,23.184 24.701,23.184 24.701,23.182 24.126,23.182 24.126,24.665 24.479,24.665 25.312,24.665 "></polygon> <polygon points="21.604,23.182 21.604,29.061 22.212,29.061 22.212,23.182 21.755,23.182 "></polygon> <path d="M5.683,14.122c-0.037,0.113-0.065,0.236-0.084,0.358c-0.112,0.726,0.146,1.419,0.629,1.9 c0.014,0.015,0.023,0.029,0.036,0.042c0.037,0.036,0.08,0.065,0.119,0.099c0.077,0.065,0.157,0.129,0.242,0.184 c0.004,0.002,0.007,0.003,0.01,0.006c0.238,0.148,0.508,0.249,0.798,0.292c0.008,0.002,0.015,0.007,0.022,0.007 c0.026,0.004,0.05,0.002,0.075,0.004c0.073,0.008,0.146,0.022,0.221,0.022c0.024,0,0.047-0.006,0.07-0.008 c0.117-0.002,0.229-0.015,0.341-0.033c0.007-0.002,0.014-0.002,0.021-0.004c0.907-0.163,1.654-0.876,1.802-1.838 c0.036-0.242,0.022-0.479-0.016-0.708l0.539-0.546l-0.754-0.404l0.28-0.791l-1.018,0.128l-0.303-1.007l-0.965,0.74l-0.53-0.847 l-0.455,0.941L5.78,12.162l0.256,0.932l-0.784,0.094l0.544,0.67C5.756,13.944,5.713,14.032,5.683,14.122z"></path> <path d="M25.792,13.094l0.255-0.932l-0.98,0.497l-0.457-0.941l-0.53,0.848l-0.966-0.74l-0.305,1.007l-1.018-0.128l0.281,0.791 L21.318,13.9l0.539,0.546c-0.039,0.229-0.053,0.466-0.017,0.708c0.187,1.211,1.319,2.042,2.529,1.855 c0.21-0.031,0.401-0.1,0.586-0.186c0.003-0.001,0.005-0.003,0.009-0.004c0.104-0.048,0.202-0.099,0.295-0.16 c0.088-0.057,0.17-0.12,0.249-0.189c0.013-0.011,0.025-0.02,0.038-0.031c0.395-0.355,0.648-0.854,0.689-1.413 c0.004-0.043,0.012-0.084,0.014-0.128c0-0.009,0.002-0.017,0.002-0.025c0-0.027-0.007-0.055-0.009-0.082 c0-0.103,0-0.206-0.017-0.311c-0.02-0.122-0.047-0.245-0.084-0.358c-0.031-0.09-0.074-0.178-0.113-0.264l0.545-0.67L25.792,13.094 z"></path> <circle cx="15.096" cy="8.762" r="2.566"></circle> <polygon points="12.956,23.249 12.779,23.249 11.75,23.473 11.75,24.421 12.626,24.421 13.649,24.254 13.658,24.421 14.792,24.421 14.792,23.363 14.792,23.249 14.792,22.041 12.956,22.041 "></polygon> <polygon points="17.273,23.249 17.273,22.041 15.438,22.041 15.438,23.249 15.438,23.363 15.438,24.421 16.57,24.421 16.58,24.254 17.604,24.421 18.479,24.421 18.479,23.473 17.449,23.249 "></polygon> <polygon points="26.359,7.12 21.629,9.831 21.518,9.618 17.475,11.714 16.029,11.714 15.051,12.847 14.104,11.714 12.026,12.099 11.893,16.711 12.774,16.711 12.822,17.667 12.956,17.667 12.956,18.251 12.956,18.684 12.956,19.833 14.792,19.833 14.792,18.684 15.438,18.684 15.438,19.833 17.273,19.833 17.273,18.684 17.273,18.251 17.273,17.667 17.438,17.667 17.675,13.031 22.1,10.738 21.729,10.022 21.835,10.21 26.576,7.495 "></polygon> <path d="M6.701,4.558l0.013-0.004V3.7h22.109v11.118h-2.08c0.002,0.04,0.012,0.077,0.012,0.117c0,0.264-0.051,0.514-0.123,0.755 h3.295V2.828H5.609v0.858v1.138v6.784l1.089,0.435L6.701,4.558z"></path> <path d="M10.228,15.69h0.944h0.323l0.051-0.907h-1.057C10.45,15.105,10.363,15.409,10.228,15.69z"></path> <path d="M18.145,14.78l-0.033,0.872l3.48,0.038c-0.072-0.241-0.124-0.491-0.124-0.755c0-0.04,0.011-0.077,0.013-0.117 L18.145,14.78z"></path> </g> </g> <g> </g> <g> </g> <g> </g> <g> </g> <g> </g> <g> </g> <g> </g> <g> </g> <g> </g> <g> </g> <g> </g> <g> </g> <g> </g> <g> </g> <g> </g> </svg> 