<?xml version="1.0" encoding="UTF-8"?> <svg xmlns="http://www.w3.org/2000/svg" xmlns:xlink="http://www.w3.org/1999/xlink" version="1.1" id="Layer_1" x="0px" y="0px" viewBox="0 0 512 512" style="enable-background:new 0 0 512 512;fill:#ffffff" xml:space="preserve"> <g> <g> <g> <path d="M8.589,221.867h17.067c4.71,0,8.533-3.823,8.533-8.533c0-4.71-3.823-8.533-8.533-8.533H8.589 c-4.71,0-8.533,3.823-8.533,8.533C0.056,218.044,3.879,221.867,8.589,221.867z"></path> <path d="M442.074,87.049c-43.11-43.11-99.797-67.661-160.418-69.777V8.533c0-4.71-3.823-8.533-8.533-8.533 c-4.71,0-8.533,3.823-8.533,8.533v8.738c-60.621,2.116-117.308,26.667-160.418,69.777c-25.498,25.498-44.459,55.543-56.371,89.31 c-1.57,4.446,0.768,9.318,5.214,10.889c4.429,1.579,9.318-0.759,10.88-5.205c11.059-31.352,28.672-59.247,52.343-82.927 c41.907-41.899,97.621-64.981,156.885-64.981c59.264,0,114.978,23.083,156.885,64.981 c86.502,86.511,86.502,227.268,0.009,313.771c-11.989,11.989-25.139,22.374-39.142,31.181c-0.708,0.145-1.425,0.23-2.099,0.563 c-1.229,0.614-2.167,1.527-2.935,2.552c-33.784,20.002-72.422,30.686-112.717,30.686c-40.294,0-78.933-10.692-112.725-30.694 c-0.768-1.024-1.707-1.929-2.927-2.543c-0.666-0.333-1.382-0.41-2.082-0.555c-14.003-8.815-27.162-19.2-39.151-31.189 c-23.689-23.688-41.31-51.601-52.361-82.944c-1.57-4.446-6.443-6.784-10.889-5.214s-6.775,6.443-5.205,10.889 c11.904,33.775,30.882,63.829,56.388,89.335c11.75,11.75,24.525,22.093,38.101,31.01l-21.854,43.691 c-2.108,4.215-0.393,9.335,3.823,11.452c1.22,0.606,2.526,0.896,3.806,0.896c3.132,0,6.144-1.724,7.646-4.719l21.231-42.462 c35.132,19.627,74.846,30.114,116.198,30.114c41.353,0,81.067-10.487,116.207-30.106l21.222,42.453 c1.502,2.995,4.514,4.719,7.646,4.719c1.28,0,2.586-0.29,3.806-0.896c4.215-2.116,5.931-7.236,3.823-11.452l-21.845-43.682 c13.568-8.926,26.351-19.268,38.101-31.019C535.233,331.793,535.233,180.215,442.074,87.049z"></path> <path d="M17.123,256c0,4.71,3.823,8.533,8.533,8.533h44.664l-17.843,29.739c-1.587,2.637-1.63,5.922-0.111,8.602 c1.51,2.671,4.352,4.326,7.424,4.326h76.8c2.594,0,5.043-1.178,6.665-3.2l31.573-39.467h20.369 c0.384,0.051,0.734,0.23,1.135,0.23h0.026c0.401,0,0.734-0.179,1.118-0.23h50.039h0.017h0.017h25.574 c4.71,0,8.533-3.823,8.533-8.533s-3.823-8.533-8.533-8.533H258.42c0.734-1.263,1.579-2.475,2.637-3.533 c3.226-3.226,7.509-5.001,12.066-5.001c4.557,0,8.841,1.775,12.066,5.001c3.226,3.226,5.001,7.509,5.001,12.066 c0,4.565-1.775,8.849-4.992,12.066c-3.217,3.226-7.509,5-12.075,5c-4.719,0-8.533,3.823-8.533,8.533 c0,4.719,3.823,8.533,8.533,8.533c9.122,0,17.698-3.558,24.141-9.993c13.312-13.303,13.303-34.97-0.009-48.273 c-6.443-6.443-15.01-10.001-24.132-10.001c-9.114,0-17.69,3.558-24.141,10.001c-4.369,4.378-7.279,9.762-8.772,15.599h-34.756 c1.852-14.993,8.533-28.868,19.396-39.74c26.624-26.598,69.931-26.607,96.546,0c26.615,26.624,26.615,69.931,0,96.546 c-26.616,26.615-69.931,26.615-96.546,0c-5.521-5.521-10.001-11.844-13.329-18.807c-2.039-4.25-7.151-6.042-11.383-4.019 c-4.25,2.039-6.05,7.134-4.011,11.383c4.156,8.704,9.762,16.614,16.657,23.509c16.64,16.64,38.485,24.951,60.339,24.951 c21.854,0,43.708-8.311,60.339-24.951c33.271-33.263,33.271-87.398,0-120.678c-33.271-33.263-87.407-33.263-120.678,0 c-14.097,14.106-22.639,32.247-24.559,51.806h-13.406l-17.254-21.564c5.333-20.523,15.974-39.27,31.087-54.374 c22.562-22.562,52.557-34.995,84.471-34.995s61.909,12.433,84.471,34.995c46.583,46.583,46.583,122.368,0,168.951 c-22.562,22.562-52.557,34.987-84.471,34.987s-61.909-12.433-84.471-34.995c-7.748-7.74-14.37-16.452-19.686-25.89 c-2.313-4.105-7.501-5.564-11.622-3.251c-4.104,2.313-5.555,7.518-3.251,11.622c6.084,10.786,13.645,20.745,22.494,29.585 c25.779,25.788,60.066,39.996,96.538,39.996c36.471,0,70.758-14.199,96.538-39.987c53.239-53.231,53.239-139.853,0-193.084 c-25.779-25.788-60.066-39.996-96.538-39.996c-36.471,0-70.758,14.208-96.538,39.996c-14.319,14.319-25.131,31.505-31.898,50.33 L143.254,208c-1.621-2.022-4.07-3.2-6.665-3.2h-26.291c8.201-26.112,22.622-49.954,42.146-69.478 c32.239-32.23,75.093-49.988,120.678-49.988c45.585,0,88.439,17.758,120.678,49.988c66.534,66.543,66.543,174.814,0.009,241.365 c-32.239,32.23-75.093,49.98-120.678,49.98c-45.585,0-88.448-17.758-120.687-49.988c-13.995-13.995-25.335-30.08-33.698-47.812 c-2.014-4.258-7.1-6.076-11.358-4.07c-4.267,2.005-6.093,7.091-4.079,11.358c9.207,19.507,21.683,37.205,37.069,52.591 c35.465,35.456,82.611,54.989,132.753,54.989c50.142,0,97.289-19.533,132.745-54.98c73.19-73.199,73.19-192.307-0.009-265.498 c-35.456-35.456-82.603-54.989-132.745-54.989c-50.142,0-97.289,19.533-132.745,54.989c-22.733,22.733-39.1,50.833-47.795,81.544 H59.789c-3.072,0-5.914,1.656-7.424,4.326c-1.519,2.679-1.476,5.965,0.111,8.602l17.843,29.739H25.656 C20.946,247.467,17.123,251.29,17.123,256z M128.056,247.467H90.219l-15.36-25.6h57.634L159.791,256l-27.298,34.133H74.859 l15.36-25.6h37.837c4.71,0,8.533-3.823,8.533-8.533S132.766,247.467,128.056,247.467z"></path> <path d="M25.656,290.133H8.589c-4.71,0-8.533,3.823-8.533,8.533s3.823,8.533,8.533,8.533h17.067c4.71,0,8.533-3.823,8.533-8.533 S30.366,290.133,25.656,290.133z"></path> </g> </g> </g> <g> </g> <g> </g> <g> </g> <g> </g> <g> </g> <g> </g> <g> </g> <g> </g> <g> </g> <g> </g> <g> </g> <g> </g> <g> </g> <g> </g> <g> </g> </svg> 